<?xml version="1.0" encoding="utf-8"?>
<!-- Generator: Adobe Illustrator 21.0.0, SVG Export Plug-In . SVG Version: 6.00 Build 0)  -->
<svg version="1.1" id="Слой_1" xmlns="http://www.w3.org/2000/svg" xmlns:xlink="http://www.w3.org/1999/xlink" x="0px" y="0px"
	 viewBox="0 0 788.7 803.1" style="enable-background:new 0 0 788.7 803.1;" xml:space="preserve">
<style type="text/css">
	.st0{enable-background:new    ;}
</style>
<g>
	<path d="M208.3,53.4c-0.7,4.9-4.5,7.7-7.9,10.2c-6.3,4.6-13.7,7.9-19.8,12.7c-7,5.5-13,12.2-20.4,19.3
		C179.8,84.7,198,74.5,216.7,64c0.3,0.8,0.6,1.3,0.6,1.8s-0.2,1.1-0.6,2.5c2.7-1.4,4.7-2.4,6.4-3.3c-1.8-1.5-3.6-3-5.8-4.8
		c1.8-1.5,3.2-2.8,4.8-3.9c7-4.6,14.2-9.1,21.2-13.7c3.9-2.5,7.6-5.4,11.7-7.5c3.5-1.8,7.4-2.8,12.1-4.4
		c-5.4,14.1-19.8,14.7-29.2,23.7c9.8-4,18.4-7.6,27-11.1c8.5-3.4,17-6.9,25.6-10.1c1.5-0.6,3.5,0,5.3,0.1c2.8,0.2,5.7,0.9,8.5,0.6
		c4.9-0.6,9.8-2,14.7-2.6c13.8-1.9,27.6-3.8,41.5-5.5c8.1-1,16.2-1.3,24.3-2.1c3.9-0.4,7.8-1.1,11.7-2.8c-0.9-0.4-1.9-0.7-3-1.1
		c2.3-1.2,4.2-2.3,7.1-3.8c10.5,3.7,22.3,1.2,34.5,1.6c-0.1-1.8-0.2-3-0.4-4.6c0.9,0,2.1-0.3,2.4,0.1c0.8,1.1,1.2,2.4,2.3,4.8
		c5.2,0.6,12.5,3.5,17.7,1.4c5.1-2,9.3,0.5,13.7-0.9c0.8-0.2,2,0.7,2.9,1.3c3.4,2.1,6.6,0.8,9.1-2.4c0.9-1.2,4-0.8,6.7-2
		c-2.6-0.8-5.2-1.6-7.7-2.4c-2.4-0.8-4.7-2.1-7.1-2.5c-6.6-1-13.3-1.6-19.9-2.5c-0.6-0.1-1.1-0.5-1.5-1.3c8.6-3,16.9,1.8,25.7,0.3
		c-2.9-0.8-5.8-1.5-9.3-2.5c5.1-1.9,10.8,0.2,13.7,3.7c1.4,1.7,4.1,2.3,7,3.9c-0.1-2.1-0.2-3-0.2-4.1c2.3-2,7.7,5.9,8.9-2.4
		c0,1.3,0,2.5,0,4c2.4,0.6,5.1,1.2,7.9,1.9c0.5-1.1,1.1-2.2,1.7-3.6c0.9,0.3,2,0.3,2.4,0.8c5.4,7.7,14.8,7.5,22.2,11.2
		c7,3.5,14.5,6,21.7,9c1.6,0.7,3,1.7,4.5,2.6c0.4-0.6,1-1.4,1.5-2.1c0.5,0.1,0.8,0.1,0.8,0.2c0.5,7.1,7.5,6.5,11.5,9.3
		c5.8,4,12.2,7,18.3,10.6c2.5,1.5,4.7,3.5,7.2,5.2c7.9,5.5,15.9,10.7,23.5,16.4c4.3,3.2,8.1,7.2,12,10.9c10,9.4,20.1,18.6,29.7,28.4
		c7.8,8,14.8,16.8,22.5,24.9c3.4,3.6,7.6,6.3,11.4,9.4c0.3-0.4,0.6-0.7,0.9-1.1c-0.9-0.8-1.9-1.5-2.5-2.5c-0.6-0.9-0.9-2-1.3-3
		c1.1,0.3,2.9,0.3,3.3,1c1.5,3,2.5,6.2,3.9,9.7c-2.2,0.3-3.3,0.4-4.6,0.5c7.4,10.5,15,20.7,21.9,31.3c3.7,5.7,6.2,12.1,9.2,18.2
		c0.6,1.2,0.9,2.9,1.8,3.5c9.1,5.6,10.2,16.3,15.6,24.3c7.4,11,9.7,23.9,14.5,35.8c6,14.9,7,30.4,10.5,45.6c1.8,8,4.5,15.7,6.9,24
		c2.4-3.1,3.8-2.2,4.2,0.7c1.9,16.5,3.8,33,5.2,49.5c0.3,3.4-1.2,7-2.4,10.4c-1.1,3.1-1.8,5.6,1.7,7.7c1,0.6,2,2.4,2,3.5
		c-0.3,6-1.1,12.1-1.4,18.1c-0.3,6.2-0.2,12.5-0.3,18.8c0,1.1-0.2,2.3-0.4,3.4c-1.8,11-3.3,22.1-5.6,33c-1.7,7.6-4.6,14.9-7,22.3
		c-1.2,3.8-2.3,7.6-2.9,11.7c0.9-1.3,1.9-2.7,2.8-4c0.7,0.4,1.4,0.9,2.2,1.3c-1,2.7-2,5.3-3,8c-1.1,3.2-2,6.5-3.3,9.7
		c-1.4,3.5-3.2,6.9-4.7,10.4c-0.5,1.3-0.7,2.7-1,4.1c-0.6,3.1,0.6,7.2-5,7.2c-1.6,0-3.6,2.5-4.5,4.3c-0.6,1.2,0.7,3.2,1,4.8
		c0.1,0.8,0.3,1.7-0.1,2.3c-2.5,4.7-4.7,9.5-7.6,13.9c-2.8,4.3-6.5,8-9.5,12.1c-0.9,1.3-1.9,3.8-1.3,4.8c3.1,4.8-0.7,7.1-3.3,9.6
		c-3.6,3.4-7.1,6.2-6.6,12.2c0.2,2.1-3,4.8-5,6.8c-5,4.9-12.5,8.6-14.7,14.5c-1.9,5-6,6-7.9,9.2c-4.4,7.4-11.7,12.1-16.5,19.3
		c-4.1,6.1-11.5,10-17.5,14.9c-6.3,5.1-12.4,10.3-18.8,15.2c-2,1.5-4.7,2-6.9,3.2c-1.5,0.8-2.7,2.2-4.8,3c0.8-1.3,1.4-3.1,2.6-4
		c13.6-10.5,25.8-22.4,37.2-35.3c1.8-2,4.6-3.2,6.7-5c4.2-3.7,7.8-7.7,10.2-13.2c1.9-4.3,6.6-7.3,9.7-11c1.4-1.7,1.8-4.2,3.2-6
		c3.1-4,6.9-7.5,9.8-11.7c3.8-5.4,7-11.2,10.4-16.9c-0.4-0.3-0.8-0.5-1.2-0.8c-2.7,3.5-5.3,7-7.8,10.3c-1.4-0.4-2.5-0.8-3.5-1.1
		c0.1,1.1,0.3,2.1,0.3,3.2c-0.1,1.7,0.2,3.9-0.7,4.9c-4.4,4.6-9.4,8.7-13.7,13.4c-3.6,4-6.5,8.6-9.9,12.8
		c-5.6,7.1-11.2,14.3-17.2,21.2c-1.9,2.2-4.9,3.4-7.4,5.1c-0.3-0.4-0.6-0.7-0.9-1.1c1.4-2,2.9-4,3.5-4.8c-4.7,4-10.3,8.8-16,13.7
		c0.3,0.4,0.7,0.8,1,1.3c1.3-0.3,2.6-0.5,3.9-0.8c0.2,0.4,0.5,0.8,0.7,1.2c-5.5,2-6.8,8.1-12.9,10.4c-4.9,1.8-8.4,7.3-12.5,11.1
		c-4.8,4.4-9.4,9.1-14.5,13.1c-5.9,4.7-12,9.3-18.4,13.3c-6.4,4.1-13.1,7.5-19.7,11.2c-11.8,6.6-23.5,13.1-36.3,20.3
		c2,1.1,2.8,1.6,4.5,2.6c-3.9,2.2-7.2,4.5-10.8,6.1c-7.1,3.1-14.3,5.9-21.4,8.8c-4.4,1.8-8.7,4-13.2,5.3c-4.6,1.3-9.4,1.8-14.2,2.3
		c-3,0.4-6.1-0.2-6.5,4.2c-0.1,1-1.8,2.3-3,2.7c-5.7,1.5-11.4,2.7-17.1,4.1c-5.8,1.4-11.5,3-17.2,4.5c-1.4,0.4-2.8,0.9-4.3,1.1
		c-11.5,1.6-22.9,3.8-34.4,4.6c-10.9,0.8-21.8,0-32.8,0c-0.5,0-1.1,0.2-2.8,0.5c2.4,1.2,3.8,1.9,5.1,2.6c0,0.4,0,0.7,0,1.1
		c-2.4,0-4.9,0-7.3,0c-4.1,0-8.1,0.1-12.2-0.2c-2.9-0.2-5.7-1.4-8.5-1.5c-2.6-0.1-5.3,0.7-7.9,0.8c-2.6,0.1-5.2,1-6.9-2.8
		c-1.6-3.7-6.4-3.8-9.4-1.4c-0.8,0.6-2.1,1-3.1,0.8c-5.2-0.9-10.5-1.7-15.5-3.1c-4.7-1.4-9.2-3.7-13.8-5.3c-1.4-0.5-4-0.9-4.6-0.2
		c-4.1,5-7.8,1.6-11.2-0.5c-3.9-2.4-7.3-4.2-12.3-2.3c-2.2,0.8-5.8-1.3-8.5-2.7c-6.1-3.3-12-7-18-10.3c-0.6-0.4-1.9,0.4-2.8,0.6
		c-1,0.2-2.5,0.8-2.8,0.4c-2.7-3.8-7.2-4.3-10.6-6.6c-5.6-3.6-11.4-5.9-17.6-7.9c-2.8-0.9-5.5-2.6-8-4.3c-9.4-6.2-18.7-12.5-28-18.9
		c-2.7-1.8-5.2-3.9-7.6-6.1c-0.8-0.7-1-2.1-1.5-3.2c1.1,0.1,2.5-0.1,3.4,0.4c4.4,2.5,8.6,5.4,13,7.8c8.7,4.6,17.5,8.9,26.2,13.5
		c3,1.6,5.5,4.3,8.5,5.7c8.2,3.7,16.5,7.2,24.9,10.4c8.3,3.2,16.6,6,25.1,8.7c6.3,2,12.7,3.5,19.1,5.2c0.2-0.5,0.3-1,0.5-1.5
		c-4-1.5-8-3-13.4-5.1c2.8-0.6,4.1-0.9,5.4-1.2c-0.1-0.3-0.2-0.7-0.4-0.8c-3.2-0.9-6.3-1.8-9.5-2.6c-0.9-0.2-2.2-0.3-2.8,0.1
		c-4,3-6.3,1.2-8.9-2.3c-1.3-1.8-4.1-2.6-6.4-3.5c-9.8-3.6-19.7-7-29.5-10.7c-4.9-1.8-9.6-4.1-14.2-6.5c-1.7-0.9-2.9-2.9-3.6-5.2
		c10,3.6,19.8,7.4,29.9,10.6c5.7,1.8,11.8,2.5,17.8,3.6c1.3,0.3,2.9-0.1,3.8,0.6c8.3,6.3,18.1,7.1,27.9,8.2
		c3.5,0.4,6.9,2.2,10.3,3.4c1.1,0.4,2.2,1.1,3.2,0.9c9.5-2,18.4,3.2,27.8,2.6c3-0.2,6,0,9.2-1c-7.6-1.4-15.3-2.8-22.9-4.3
		c0.1-0.7,0.2-1.4,0.3-2.1c10.8,1.2,21.6,2.3,32.9,3.5c-3.8-4.9-14-7.1-18.5-4.4c-1.5-1.4-3-2.8-5.1-4.8c-0.3,1.8-0.4,2.7-0.6,3.9
		c-6.1,1.5-9.5-9.3-15.9-4c-1.7-1.4-2.9-3.1-4.5-3.6c-9.9-3.2-20-6.1-29.9-9.4c-9.1-3-18.3-6.1-27.1-9.9c-10.2-4.4-20-9.5-29.8-14.7
		c-7.2-3.9-14.3-8.1-21.1-12.8c-7.9-5.5-15.7-11.2-23-17.5c-9.6-8.2-18.8-16.8-27.9-25.6c-11.1-10.8-22-21.8-32.9-32.8
		c-0.9-0.9-1.4-2.4-1.3-4.2c1.1,0.8,2.1,1.5,3.2,2.3c0.2-0.4,0.5-0.8,0.5-0.9c-3.3-4.1-5.3-5.1-7.9-3.9c-2.2-3.2-4.5-6.4-6.7-9.6
		c-4.5-6.5-8.7-13.2-13.5-19.5c-2.6-3.4-6.2-6-9.8-9.4c0.1-0.1,0.6-1.3,1-2c-2-2-3.7-3.9-5.5-5.8c-0.5-0.5-1.1-1.3-1.5-1.2
		c-5.8,0.9-9.2-2.8-13.4-5.9c-7-5.2-13.8-10.7-18.6-17.9c-7.7-11.5-12.3-24.3-13.6-38.4c-1-10.7-3.5-21.2-5.3-31.8
		c-1.5-9.1-3.6-18.2-4.3-27.3c-0.4-5.8,1.3-11.7,2-17.6c0.3-2.6,0.9-5.3,0.9-7.9c-0.3-15.6-1.2-31.1-1.2-46.7
		c0.1-16.4,0.3-32.8,1.9-49.1c1.2-12.7,5-25.2,7-37.9c2.8-18.1,9.6-34.9,16.1-51.7c5.2-13.6,12.7-26.3,19.3-39.4
		c2.4-4.7,4.9-9.3,7.6-13.8c0.8-1.4,2.2-2.6,4.1-3.3c-0.5,1.4-0.9,2.7-1.6,4.7c4.9-4.3,5.6-7,3-9.1c18.9-28.7,44.2-51.2,69.2-74.1
		c0.4,0.4,0.9,0.8,1.3,1.2c-1.2,1.2-2.4,2.3-3.5,3.6c-5.5,6.5-10.8,13.2-16.4,19.6c-4.2,4.9-9,9.3-13.1,14.3
		c-8.7,10.8-17.3,21.8-25.6,32.9c-4.3,5.7-8.7,11.6-11.9,17.9c-3.2,6.3-5.1,13.3-6.6,20.6c1.5-2.3,3-4.5,4.4-6.9
		c5.7-9.4,11.9-18.3,16.6-28.4c4-8.8,10.6-16.5,16.8-24.1c7.8-9.5,16.3-18.5,24.8-27.3c4.4-4.6,9.7-8.5,14.5-12.8
		c9.3-8.4,18.6-16.8,27.8-25.2l4.9-10.2c0.4-0.5,0.7-1.2,1.2-1.5c8-5.3,16.1-10.5,24.2-15.7c0.5-0.3,1.2-0.8,1.3-1.3
		c2-8.2,9.2-9.2,15.5-11.5c1.4-0.5,2.6-1.4,3.8-2.1C208.5,53.5,208.3,53.4,208.3,53.4z"/>
	<path d="M208.5,53.5c4.2-5.7,8-11.8,12.6-17.1c3.2-3.6,7.6-6.2,11.4-9.2c4.2-3.3,8.3-6.9,12.8-9.8c6.5-4.2,13.6-6.7,21.6-5.9
		c1.5,5.3,1.5,5.3,8.9,5.2c-13.4,6.7-26.9,13.4-40.6,20.3c0.9,0.9,1.4,1.6,2.3,2.5c-0.8,0.4-1.6,1-2.2,0.9c-8-0.6-12.5,6.2-19,8.7
		c-2.8,1.1-5.3,2.8-7.9,4.2C208.3,53.4,208.5,53.5,208.5,53.5z"/>
	<path d="M224.5,25.4c1.4-5.4,9.6-11.4,15.8-12C239.6,18.6,230.6,25.5,224.5,25.4z"/>
	<path d="M462.3,10.9c6.2,1.5,12.5,3,18.7,4.5c-0.2,0.7-0.3,1.4-0.5,2.1c-6.3-1.3-12.6-2.7-18.9-4C461.9,12.6,462.1,11.8,462.3,10.9
		z"/>
	<path d="M234.4,9.1c3.9-3,7.7-6.1,11.6-9.1c-0.1,5.4-0.9,6-10.7,10.2C235,9.9,234.7,9.5,234.4,9.1z"/>
	<path d="M692.9,134.8c-2-2.6-4-5.1-6.3-8.1C691.8,125.8,694.4,128.9,692.9,134.8z"/>
	<path d="M434.6,10.5c1.7-2.4,2.8-4.1,4.7-6.7c0,2.3,0,3.4,0,4.5c2.3,0.6,4.4,1.1,6.6,1.6c-0.1,0.4-0.1,0.9-0.2,1.3
		C442.2,10.9,438.8,10.7,434.6,10.5z"/>
	<path d="M684.1,124.6c-2.7-3.7-4.7-6.5-6.7-9.2c0.5-0.3,0.9-0.6,1.4-0.9C682.6,116,685.3,118.4,684.1,124.6z"/>
	<path d="M764.5,257.3c1.2,3.4,2.4,6.8,3.6,10.2c-0.6,0.2-1.2,0.4-1.8,0.6c-1.2-3.4-2.4-6.9-3.7-10.3
		C763.3,257.7,763.9,257.5,764.5,257.3z"/>
	<path d="M435.5,6.6c-4.2-0.3-8.4-0.6-12.5-0.9c0-0.5,0.1-1.1,0.1-1.6c4.2,0.2,8.4,0.5,12.6,0.7C435.6,5.4,435.5,6,435.5,6.6z"/>
	<path d="M610.1,718c-3.1,2.4-6,4.5-9.2,6.9C602.1,720,605.1,717.7,610.1,718z"/>
</g>
<path class="st0" d="M-345.2-82.2"/>
</svg>
